<svg xmlns="http://www.w3.org/2000/svg" xmlns:xlink="http://www.w3.org/1999/xlink" width="128" height="128" viewBox="0 0 128 128"><defs><linearGradient id="a"><stop offset="0" stop-color="#2fcfcc"/><stop offset="1" stop-color="#782fcf"/></linearGradient><linearGradient xlink:href="#a" id="c" x1="31.911" y1="64.001" x2="96.089" y2="64.001" gradientUnits="userSpaceOnUse" gradientTransform="rotate(45 -1051.8 526.185)"/><filter id="b" color-interpolation-filters="sRGB"><feFlood flood-opacity=".498" flood-color="#000" result="flood"/><feComposite in="flood" in2="SourceGraphic" operator="in" result="composite1"/><feGaussianBlur in="composite1" stdDeviation="4" result="blur"/><feOffset dx="4" dy="4" result="offset"/><feComposite in="SourceGraphic" in2="offset" result="composite2"/></filter><linearGradient xlink:href="#a" id="d" x1="40" y1="964.362" x2="88" y2="1012.362" gradientUnits="userSpaceOnUse"/></defs><path style="line-height:normal;text-indent:0;text-align:start;text-decoration-line:none;text-decoration-style:solid;text-decoration-color:#000;text-transform:none;block-progression:tb;isolation:auto;mix-blend-mode:normal" d="M92.281 959.911a8 8 0 0 0-6.68-2.177h-32.91a8 8 0 1 0-.002 16h14.628L35.72 1005.33a8 8 0 1 0 11.314 11.313l31.597-31.597v14.628a8 8 0 1 0 16-.001V966.73a8 8 0 0 0-2.35-6.819z" color="#000" font-weight="400" font-family="sans-serif" white-space="normal" overflow="visible" fill="url(#c)" fill-rule="evenodd" enable-background="accumulate" transform="translate(0 -924.362)"/><path fill="#fff" d="M0 0h128v128H0z"/><path d="M92.281 959.911a8 8 0 0 0-6.68-2.177h-32.91a8 8 0 1 0-.002 16h14.628L35.72 1005.33a8 8 0 1 0 11.314 11.313l31.597-31.597v14.628a8 8 0 1 0 16-.001V966.73a8 8 0 0 0-2.35-6.819z" style="line-height:normal;text-indent:0;text-align:start;text-decoration-line:none;text-decoration-style:solid;text-decoration-color:#000;text-transform:none;block-progression:tb;isolation:auto;mix-blend-mode:normal" color="#000" font-weight="400" font-family="sans-serif" white-space="normal" overflow="visible" fill="url(#d)" fill-rule="evenodd" enable-background="accumulate" transform="translate(0 -924.362)"/></svg>